<svg enable-background="new 0 0 1600 1600" height="1600" viewBox="0 0 1600 1600" width="1600" xmlns="http://www.w3.org/2000/svg"><g fill="#fff"><path d="m205.13933 204.56828h244.91557v1184.1549h-244.91557z"/><path d="m1150.297 204.56828h244.91557v1184.1549h-244.91557z"/><path d="m225.35081 680.13257h1150.8654v244.91557h-1150.8654z"/><path d="m287.50705 184.49947h88.3955c108.54753-74.55658 237.77022-121.197534 377.32454-129.519908v-54.73744341c-176.71967 10.21274241-338.05483 77.74286241-465.72004 184.25735141zm556.07725-184.45946641v54.93955841c139.55432 8.322374 268.777 54.963328 377.3246 129.519908h91.9622c-128.5213-107.227835-291.1761-174.9481811-469.2868-184.45946641zm573.6136 289.17871641v92.78258c70.9661 104.68358 116.0615 228.31838 126.1197 361.73793h55.6885c-11.8771-172.17803-78.1708-329.37579-181.8082-454.52051zm127.5227 544.87771c-6.5867 149.79084-44.7744 269.99807-126.8925 384.20477v90.8067c114.8487-132.409 174.4369-287.9364 182.367-475.01147zm-1543.3367684-90.3572h52.1099504c10.272187-136.35615 57.150928-262.49956 130.851498-368.63361v-87.28982c-104.315013 125.37063-171.060453 283.10339-182.9614484 455.92343zm50.7070364 90.3572h-51.89594692c7.66847322 181.18997 75.54337792 346.79327 184.15035892 477.32387v-85.1499c-77.9212-112.2093-125.858073-246.79399-132.254412-392.17397zm1181.646332 573.76827c-110.6758 79.5025-243.97635 129.4842-388.36953 138.4248v52.7996c181.18993-10.0702 346.29393-80.3823 475.63553-191.2244zm-870.66299 0h-83.69931c129.34158 110.8421 294.44559 181.1542 475.63557 191.2244v-52.5856c-145.77233-8.3342-280.35701-58.4825-391.93626-138.6388z"/></g></svg>